Coordinates
nRows=118
nColumns=2
inDegrees=yes
endheader
time	ankle_angle_r	
3.07762	 -0.362352	
3.14919	 -0.374344	
3.22077	 -0.401003	
3.29234	 -0.305176	
3.36391	 -0.321621	
3.43548	 -0.402190	
3.50706	 -0.335693	
3.57863	 -0.386785	
3.6502	 -0.371734	
3.72177	 -0.429180	
3.79335	 -0.423865	
3.86492	 -0.360064	
3.93649	 -0.396729	
4.00806	 -0.405424	
4.07964	 -0.405216	
4.15121	 -0.381470	
4.22278	 -0.404800	
4.29435	 -0.435579	
4.36593	 -0.396729	
4.4375	 -0.396729	
4.50907	 -0.381470	
4.58065	 -0.442505	
4.65222	 -0.403552	
4.72379	 -0.357568	
4.79536	 -0.396729	
4.86694	 -0.384329	
4.93851	 -0.381470	
5.01008	 -0.320435	
5.08165	 -0.316327	
5.15323	 -0.411987	
5.2248	 -0.284757	
5.29637	 -0.335693	
5.36794	 -0.334665	
5.43952	 -0.386005	
5.51109	 -0.370538	
5.58266	 -0.362092	
5.65423	 -0.370122	
5.72581	 -0.381470	
5.79738	 -0.362716	
5.86895	 -0.305176	
5.94052	 -0.296076	
6.0121	 -0.348081	
6.08367	 -0.281927	
6.15524	 -0.292372	
6.22681	 -0.366211	
6.29839	 -0.398768	
6.36996	 -0.347290	
6.44153	 -0.293163	
6.5131	 -0.411987	
6.58468	 -0.368625	
6.65625	 -0.410988	
6.72782	 -0.380679	
6.7994	 -0.456598	
6.87097	 -0.442130	
6.94254	 -0.411820	
7.01411	 -0.396729	
7.08569	 -0.381719	
7.15726	 -0.442048	
7.22883	 -0.382135	
7.3004	 -0.367084	
7.37198	 -0.413068	
7.44355	 -0.410698	
7.51512	 -0.413484	
7.58669	 -0.367916	
7.65827	 -0.455850	
7.72984	 -0.409866	
7.80141	 -0.356894	
7.87298	 -0.384007	
7.94456	 -0.378724	
8.01613	 -0.396729	
8.0877	 -0.323596	
8.15927	 -0.320435	
8.23085	 -0.339271	
8.30242	 -0.350952	
8.37399	 -0.350952	
8.44556	 -0.300974	
8.51714	 -0.372651	
8.58871	 -0.325052	
8.66028	 -0.310001	
8.73185	 -0.391537	
8.80343	 -0.401970	
8.875	 -0.421797	
8.94657	 -0.366211	
9.01815	 -0.345087	
9.08972	 -0.451690	
9.16129	 -0.396729	
9.23286	 -0.387959	
9.30444	 -0.381470	
9.37601	 -0.427246	
9.44758	 -0.442505	
9.51915	 -0.373533	
9.59073	 -0.412187	
9.6623	 -0.419508	
9.73387	 -0.419300	
9.80544	 -0.373316	
9.87702	 -0.402160	
9.94859	 -0.410106	
10.0202	 -0.381470	
10.0917	 -0.375197	
10.1633	 -0.326499	
10.2349	 -0.390872	
10.3065	 -0.364523	
10.378	 -0.370588	
10.4496	 -0.411987	
10.5212	 -0.396729	
10.5927	 -0.427246	
10.6643	 -0.407379	
10.7359	 -0.425189	
10.8075	 -0.461956	
10.879	 -0.404018	
10.9506	 -0.457764	
11.0222	 -0.388607	
11.0937	 -0.423886	
11.1653	 -0.384622	
11.2369	 -0.381470	
11.3085	 -0.421773	
11.38	 -0.396729	
11.4516	 -0.424926	
